<svg width="44" height="46" viewBox="0 0 44 46" fill="none" xmlns="http://www.w3.org/2000/svg">
<path d="M33.1433 15.0002H40.7862C41.8908 15.0002 42.7862 15.8956 42.7862 17.0002V38.7148C42.7862 39.8193 41.8908 40.7148 40.7862 40.7148H29.929" stroke="#1E88E5" stroke-linejoin="round"/>
<path d="M23.5003 11.7858L34.8245 0.92322C35.2173 0.546516 35.8391 0.552985 36.2239 0.937777L39.3372 4.05108C39.7252 4.43904 39.7281 5.06713 39.3438 5.45868L32.6075 12.3216" stroke="#1E88E5" stroke-linejoin="round"/>
<path d="M12.2501 22.4997H21.8931M9.95032 22.4997H5C2.79086 22.4997 1 20.7089 1 18.4997V11.7853H33.1432V18.4998C33.1432 20.7089 31.3524 22.4997 29.1432 22.4997H24.036" stroke="#1E88E5"/>
<path d="M4.21436 22.4997V41C4.21436 43.2091 6.00521 45 8.21435 45H25.9289C28.1381 45 29.9289 43.2091 29.9289 41V22.4997" stroke="#1E88E5"/>
<path d="M22.4288 11.7853V9.49957C22.4288 8.395 21.5333 7.49957 20.4288 7.49957H13.7144C12.6098 7.49957 11.7144 8.395 11.7144 9.49957V11.7853" stroke="#1E88E5"/>
<path d="M10.0715 34.7856H24.0717V37.6428C24.0717 38.4712 23.4001 39.1428 22.5717 39.1428H11.5715C10.7431 39.1428 10.0715 38.4712 10.0715 37.6428V34.7856Z" stroke="#1E88E5"/>
<rect x="10.0715" y="19.7854" width="2.21432" height="9.71441" stroke="#1E88E5"/>
<rect x="21.8574" y="19.7854" width="2.21432" height="9.71441" stroke="#1E88E5"/>
</svg>
