<svg width="48" height="51" viewBox="0 0 48 51" fill="none" xmlns="http://www.w3.org/2000/svg">
<path d="M41.1765 44.7059C41.1765 45.7974 39.3618 46.7153 36.4706 46.9812V50C32.5721 50 27.6471 48.3583 27.6471 47.0588" stroke="#1E88E5"/>
<path d="M28.2353 15.2941V2.35294M41.1765 2.35294V19.8529M41.1765 44.7059V22.0588M27.6471 47.0588V36.4706" stroke="#1E88E5"/>
<path d="M14.7059 45.2941V25.2941L24.7059 21.7647" stroke="#1E88E5" stroke-linecap="round"/>
<path d="M23.3749 14.1054C23.4753 14.0727 23.5835 14.0727 23.684 14.1054L43.978 20.701C44.4386 20.8507 44.4386 21.5023 43.978 21.652L23.684 28.2476C23.5835 28.2802 23.4753 28.2802 23.3749 28.2476L3.08081 21.652C2.62019 21.5023 2.6202 20.8507 3.0808 20.701L23.3749 14.1054Z" stroke="#1E88E5" stroke-linejoin="round"/>
<path d="M10 24.1176V32.3529C10 32.3529 15.5882 36.4706 23.5294 36.4706C31.4706 36.4706 37.0588 32.3529 37.0588 32.3529V24.1176" stroke="#1E88E5"/>
<path d="M14.1176 39.4118H15.2941L16.7482 45.2281C16.9059 45.8592 16.4286 46.4706 15.778 46.4706H14.7058H13.6337C12.9831 46.4706 12.5058 45.8592 12.6635 45.2281L14.1176 39.4118Z" fill="#1E88E5"/>
<path d="M36.3824 4.70588V4.20588H35.8824C33.95 4.20588 31.9346 4.05942 30.4167 3.70432C29.6538 3.52585 29.0546 3.30309 28.6578 3.04562C28.2622 2.78896 28.1471 2.5553 28.1471 2.35294C28.1471 2.08456 28.2586 1.84849 28.5254 1.62194C28.8063 1.38342 29.2471 1.16954 29.8529 0.995201C31.062 0.64721 32.7706 0.5 34.7059 0.5C36.6102 0.5 38.3183 0.788035 39.534 1.2079C40.1445 1.41874 40.606 1.65437 40.9045 1.88476C41.2176 2.12644 41.2647 2.29145 41.2647 2.35294C41.2647 3.6199 40.6735 4.43067 39.7153 4.98371C38.8431 5.4871 37.6716 5.76953 36.3824 5.91809V4.70588Z" stroke="#1E88E5"/>
<path d="M36.4706 4.11765V12.3529" stroke="#1E88E5" stroke-linecap="round"/>
<path d="M36.4706 48.8235V40" stroke="#1E88E5" stroke-linecap="round"/>
<path d="M32.3529 2.35294H36.4706" stroke="#1E88E5" stroke-linecap="round"/>
</svg>
