<svg width="51" height="50" viewBox="0 0 51 50" fill="none" xmlns="http://www.w3.org/2000/svg">
<path d="M8.21598 14.668C8.1762 14.6282 8.14343 14.582 8.11903 14.5313L5.02096 8.09686C4.81577 7.6707 5.26221 7.22426 5.68837 7.42945L12.1228 10.5275C12.1735 10.5519 12.2197 10.5847 12.2595 10.6245L39.9358 38.3008C40.131 38.496 40.131 38.8126 39.9358 39.0079L36.5994 42.3443C36.4041 42.5395 36.0875 42.5395 35.8923 42.3443L8.21598 14.668Z" stroke="#1E88E5" stroke-linejoin="round"/>
<path d="M10.5 12.7273L13.9735 16.1383M31.3408 33.1931L24.3939 26.3712L20.9204 22.9602" stroke="#1E88E5" stroke-linecap="round"/>
<path d="M6.23438 10.5625L8.15391 8.64294" stroke="#1E88E5"/>
<path d="M32.1615 2.19282L42.7135 12.7448C45.7468 15.7782 45.8611 20.6251 43.0563 23.7951L26.8078 7.54656L32.1615 2.19282Z" stroke="#1E88E5"/>
<path d="M32.3713 12.7791L26.0333 19.1249L23.4878 21.6627M37.1219 17.5297L30.7839 23.8755L28.1909 26.3658M24.2292 30.4302L11.8269 42.8325C11.4364 43.223 10.8032 43.223 10.4127 42.8325L7.07628 39.4961C6.68575 39.1056 6.68575 38.4724 7.07628 38.0819L19.4786 25.6796" stroke="#1E88E5" stroke-linejoin="round"/>
<path d="M40.9904 11.4151L42.3192 10.0862C42.7098 9.69567 42.7098 9.06251 42.3192 8.67199L40.3402 6.69292C39.9496 6.30239 39.3165 6.30239 38.9259 6.69292L37.5971 8.02178" stroke="#1E88E5" stroke-linejoin="round"/>
</svg>
