<?xml version="1.0" encoding="UTF-8"?>
<svg width="238px" height="55px" viewBox="0 0 238 55" version="1.1" xmlns="http://www.w3.org/2000/svg" xmlns:xlink="http://www.w3.org/1999/xlink">
    <!-- Generator: Sketch 57.1 (83088) - https://sketch.com -->
    <title>logo/GPN+Slogan-ru</title>
    <desc>Created with Sketch.</desc>
    <defs>
        <rect id="path-1" x="0" y="0" width="238" height="55"></rect>
        <polygon id="path-3" points="0 0.145918977 109.441208 0.145918977 109.441208 52.4178207 0 52.4178207"></polygon>
        <polygon id="path-5" points="0.0390205479 0.0545178082 5.75155479 0.0545178082 5.75155479 39.2054795 0.0390205479 39.2054795"></polygon>
    </defs>
    <g id="logo/GPN+Slogan-ru" stroke="none" stroke-width="1" fill="none" fill-rule="evenodd">
        <mask id="mask-2" fill="white">
            <use xlink:href="#path-1"></use>
        </mask>
        <use id="Mask" fill-opacity="0.01" fill="#FFFFFF" xlink:href="#path-1"></use>
        <g id="Group-47" mask="url(#mask-2)">
            <g transform="translate(0.000000, 0.000000)">
                <path d="M141.92154,24.0409123 C142.851433,19.4321487 143.295469,18.2796824 144.246818,17.3405271 C144.965057,16.6154169 145.810216,16.2739726 147.036496,16.2739726 C148.135493,16.2739726 149.002472,16.6154169 149.530515,17.2770111 C149.932001,17.7891775 150.164384,18.6211267 150.164384,19.4104872 C150.164384,19.7306371 150.164384,20.0081983 150.101106,20.3922313 L147.860562,20.3922313 C147.924204,20.0720814 147.924204,19.8161817 147.924204,19.5386206 C147.924204,18.855732 147.691822,18.3009768 146.867392,18.3009768 C146.402627,18.3009768 146.064418,18.4504046 145.789851,18.7492601 C145.197803,19.3678984 144.922872,20.2853923 144.16172,24.0409123 C143.78169,25.9831062 143.527851,27.5618271 143.527851,28.4793209 C143.527851,29.3116373 143.844967,29.7808478 144.605756,29.7808478 C145.134162,29.7808478 145.493463,29.5679041 145.768394,29.2260926 C146.106603,28.8207652 146.317893,28.3302603 146.465541,27.6686661 L148.727541,27.6686661 C148.410425,29.2047983 147.945296,30.165248 147.079045,30.9333141 C146.42372,31.5093636 145.662568,31.8082192 144.39483,31.8082192 C143.084179,31.8082192 142.280842,31.360303 141.794257,30.5918698 C141.414227,29.9732315 141.287671,29.4181092 141.287671,28.5006153 C141.287671,27.5831215 141.520054,26.1108724 141.92154,24.0409123" id="Fill-1" fill="#1A7FC3"></path>
                <polygon id="Fill-3" fill="#1A7FC3" points="153.424276 18.346582 151.108952 18.346582 151.498189 16.2739726 158.30137 16.2739726 157.912133 18.346582 155.596104 18.346582 153.075938 31.8082192 150.90411 31.8082192"></polygon>
                <path d="M162.636579,23.6703927 C163.8091,23.6703927 164.36381,22.9721568 164.747558,21.0084623 C164.832305,20.5722526 164.918153,20.0485757 164.918153,19.6559118 C164.918153,18.783117 164.576963,18.3469073 163.617593,18.3469073 L162.444705,18.3469073 L161.399855,23.6703927 L162.636579,23.6703927 Z M160.589435,16.2739726 L164.022253,16.2739726 C165.21642,16.2739726 165.920079,16.5138504 166.474422,17.0814486 C166.986208,17.6047501 167.178082,18.3683048 167.178082,19.1975538 C167.178082,19.7430036 167.135525,20.3102264 167.007487,21.0084623 C166.26127,24.8266112 164.832305,25.742952 162.529819,25.742952 L160.994461,25.742952 L159.82194,31.8082192 L157.561644,31.8082192 L160.589435,16.2739726 Z" id="Fill-5" fill="#1A7FC3"></path>
                <polygon id="Fill-7" fill="#1A7FC3" points="170.136867 16.2739726 176.054795 16.2739726 175.658641 18.3465319 171.950211 18.3465319 171.074371 22.9503839 174.262602 22.9503839 173.866807 25.0011702 170.678576 25.0011702 169.783017 29.7352845 173.491447 29.7352845 173.095651 31.8082192 167.178082 31.8082192"></polygon>
                <polygon id="Fill-9" fill="#1A7FC3" points="178.321218 16.2739726 180.353729 16.2739726 181.538996 24.3029343 185.857536 16.2739726 187.890411 16.2739726 184.884262 31.8082192 182.639757 31.8082192 184.502893 22.1646808 181.369984 28.3391882 180.120974 28.3391882 179.44347 22.1211349 177.559208 31.8082192 175.315068 31.8082192"></polygon>
                <polygon id="Fill-11" fill="#1A7FC3" points="190.127573 16.2739726 192.349868 16.2739726 190.54671 25.6119389 195.620369 16.2739726 197.506849 16.2739726 194.529962 31.8082192 192.308027 31.8082192 194.089903 22.4920258 189.100289 31.8082192 187.150685 31.8082192"></polygon>
                <polygon id="Fill-13" fill="#1A7FC3" points="200.512999 16.2739726 202.54551 16.2739726 203.730777 24.3029343 208.049316 16.2739726 210.082192 16.2739726 207.076042 31.8082192 204.831538 31.8082192 206.694673 22.1646808 203.561765 28.3391882 202.312754 28.3391882 201.635251 22.1211349 199.750989 31.8082192 197.506849 31.8082192"></polygon>
                <path d="M210.716035,24.0409123 C211.646253,19.4321487 212.089907,18.2796824 213.041217,17.3405271 C213.759427,16.6154169 214.604915,16.2739726 215.830781,16.2739726 C216.930097,16.2739726 217.796677,16.6154169 218.325061,17.2770111 C218.726168,17.7891775 218.958904,18.6211267 218.958904,19.4104872 C218.958904,19.7306371 218.958904,20.0081983 218.895629,20.3922313 L216.655177,20.3922313 C216.718452,20.0720814 216.718452,19.8161817 216.718452,19.5386206 C216.718452,18.855732 216.48608,18.3009768 215.662047,18.3009768 C215.196938,18.3009768 214.858743,18.4504046 214.584187,18.7492601 C213.992527,19.3678984 213.717244,20.2853923 212.956487,24.0409123 C212.576108,25.9831062 212.322643,27.5618271 212.322643,28.4793209 C212.322643,29.3116373 212.639747,29.7808478 213.40014,29.7808478 C213.928888,29.7808478 214.288175,29.5679041 214.562731,29.2260926 C214.900927,28.8207652 215.112208,28.3302603 215.260213,27.6686661 L217.521757,27.6686661 C217.204653,29.2047983 216.739544,30.165248 215.873328,30.9333141 C215.21803,31.5093636 214.456909,31.8082192 213.189223,31.8082192 C211.878626,31.8082192 211.075322,31.360303 210.589121,30.5918698 C210.208742,29.9732315 210.082192,29.4181092 210.082192,28.5006153 C210.082192,27.5831215 210.314565,26.1108724 210.716035,24.0409123" id="Fill-15" fill="#1A7FC3"></path>
                <path d="M222.389332,22.0555804 C222.389332,22.9937168 222.756652,23.3646166 223.687047,23.3646166 L224.876836,23.3646166 L225.871615,18.346582 L224.639027,18.346582 C223.449238,18.346582 222.908865,18.9573654 222.540801,20.855787 C222.454088,21.2702338 222.389332,21.6846806 222.389332,22.0555804 L222.389332,22.0555804 Z M221.177958,24.8264425 C220.313063,24.2809795 220.053297,23.3863901 220.053297,22.3607844 C220.053297,21.9684865 220.118052,21.4883439 220.247935,20.855787 C221.005277,17.0810927 222.173109,16.2739726 224.876836,16.2739726 L228.575342,16.2739726 L225.482337,31.8082192 L223.189472,31.8082192 L224.487559,25.3501321 L223.276185,25.3501321 L219.988541,31.8082192 L217.479452,31.8082192 L221.177958,24.8264425 Z" id="Fill-17" fill="#1A7FC3"></path>
                <path d="M140.734317,44.535304 L145.412938,36.9863014 L147.945205,36.9863014 L143.095231,44.5135295 L145.133749,52.5205479 L142.64432,52.5205479 L140.734317,44.535304 Z M139.896752,36.9863014 L142.172359,36.9863014 L139.124922,52.5205479 L136.849315,52.5205479 L139.896752,36.9863014 Z" id="Fill-19" fill="#1A7FC3"></path>
                <path d="M154.044924,50.4478384 C155.204296,50.4478384 155.731547,49.7713264 156.132519,47.7860904 C156.216705,47.3716236 156.280208,46.8261342 156.280208,46.4116674 C156.280208,45.5388093 155.963421,45.1025679 155.014877,45.1025679 L153.833733,45.1025679 L152.80064,50.4478384 L154.044924,50.4478384 Z M153.159156,36.9863014 L159.780822,36.9863014 L159.380213,39.0590109 L154.993831,39.0590109 L154.234342,43.0298584 L155.415124,43.0298584 C156.596268,43.0298584 157.292254,43.2915281 157.840552,43.858792 C158.346757,44.3825069 158.536538,45.1243424 158.536538,45.9750506 C158.536538,46.52054 158.473036,47.2188265 158.367803,47.7860904 C157.629724,51.6041408 156.216705,52.5205479 153.939328,52.5205479 L150.164384,52.5205479 L153.159156,36.9863014 Z" id="Fill-21" fill="#1A7FC3"></path>
                <path d="M167.1623,40.3363644 C167.1623,39.5682438 166.888009,39.0134493 166.044819,39.0134493 C165.623224,39.0134493 165.285441,39.1628877 164.990469,39.4617644 C164.442251,40.0165589 164.125873,41.0193014 163.387901,44.7534247 C163.008756,46.673726 162.734102,48.2742219 162.734102,49.1704849 C162.734102,49.9386055 163.008756,50.4934 163.851946,50.4934 C164.273903,50.4934 164.610961,50.3439616 164.906295,50.0450849 C165.454514,49.4906576 165.770891,48.4875479 166.508501,44.7534247 C166.888009,42.8331233 167.1623,41.2326274 167.1623,40.3363644 M163.472438,38.0320028 C164.21041,37.306474 165.0536,36.9863014 166.255617,36.9863014 C167.605301,36.9863014 168.427084,37.4559124 168.891492,38.2453288 C169.271,38.8427151 169.39726,39.3762137 169.39726,40.2724767 C169.39726,41.2113315 169.165419,42.6836849 168.743462,44.7534247 C167.816098,49.383811 167.415184,50.5146959 166.424327,51.4748466 C165.707398,52.2007425 164.864209,52.5205479 163.662554,52.5205479 C162.291464,52.5205479 161.469681,52.0513041 161.005273,51.2615205 C160.646809,50.6641342 160.520548,50.1306356 160.520548,49.2343726 C160.520548,48.2955178 160.752389,46.8231644 161.153303,44.7534247 C162.102073,40.1230384 162.502261,38.9921534 163.472438,38.0320028" id="Fill-23" fill="#1A7FC3"></path>
                <path d="M168.316457,50.4478384 L168.526615,50.4478384 C169.743505,50.4478384 170.540804,49.6624538 171.31788,45.6041328 L172.996251,36.9863014 L179.753425,36.9863014 L176.773667,52.5205479 L174.528016,52.5205479 L177.109486,39.0590109 L174.737813,39.0590109 L173.458091,45.6916064 C172.324614,51.6259153 171.170192,52.5205479 168.589084,52.5205479 L167.917808,52.5205479 L168.316457,50.4478384 Z" id="Fill-25" fill="#1A7FC3"></path>
                <path d="M183.52461,50.4478384 C184.651769,50.4478384 185.16421,49.7713264 185.553919,47.7860904 C185.635388,47.3716236 185.697107,46.8261342 185.697107,46.4116674 C185.697107,45.5388093 185.389571,45.1025679 184.467319,45.1025679 L183.319704,45.1025679 L182.315277,50.4478384 L183.52461,50.4478384 Z M182.663723,36.9863014 L184.836572,36.9863014 L183.709061,43.0298584 L184.856675,43.0298584 C186.004642,43.0298584 186.681078,43.2915281 187.213975,43.858792 C187.705608,44.3825069 187.890411,45.1243424 187.890411,45.9750506 C187.890411,46.52054 187.828692,47.2188265 187.726063,47.7860904 C187.009069,51.6041408 185.635388,52.5205479 183.422334,52.5205479 L179.753425,52.5205479 L182.663723,36.9863014 Z" id="Fill-27" fill="#1A7FC3"></path>
                <polygon id="Fill-29" fill="#1A7FC3" points="191.657048 36.9863014 193.91696 36.9863014 191.295007 50.4478384 193.788943 50.4478384 196.410896 36.9863014 198.670809 36.9863014 196.048489 50.4478384 198.542425 50.4478384 201.164745 36.9863014 203.424658 36.9863014 200.397013 52.5205479 188.630137 52.5205479"></polygon>
                <polygon id="Fill-31" fill="#1A7FC3" points="206.383681 36.9863014 212.30137 36.9863014 211.905543 39.0590109 208.196814 39.0590109 207.321261 43.6624459 210.509391 43.6624459 210.113205 45.7133809 206.925434 45.7133809 206.029803 50.4478384 209.738173 50.4478384 209.342705 52.5205479 203.424658 52.5205479"></polygon>
                <polygon id="Fill-33" fill="#1A7FC3" points="214.567967 36.9863014 216.600232 36.9863014 217.785568 45.0150944 222.104358 36.9863014 224.136986 36.9863014 221.131027 52.5205479 218.886393 52.5205479 220.749636 42.8770613 217.616546 49.0512654 216.367463 49.0512654 215.68992 42.8335122 213.805914 52.5205479 211.561644 52.5205479"></polygon>
                <path d="M223.772655,50.4478384 C225.0021,50.4478384 225.5435,50.0986952 226.043668,48.8552947 L226.627018,47.4587217 L225.564296,36.9863014 L227.814514,36.9863014 L228.210704,44.3168079 L231.398871,36.9863014 L233.753425,36.9863014 L227.752486,49.5314312 C226.605864,51.9315095 226.12685,52.5205479 223.39726,52.5205479 L223.772655,50.4478384 Z" id="Fill-35" fill="#1A7FC3"></path>
                <path d="M235.14616,36.9863014 L237.452055,36.9863014 L235.308356,48.2005572 L233.285434,48.2005572 L235.14616,36.9863014 Z M232.759516,49.8588 L235.085598,49.8588 L234.600403,52.5205479 L232.273973,52.5205479 L232.759516,49.8588 Z" id="Fill-37" fill="#1A7FC3"></path>
                <g id="Group-41" stroke-width="1" fill="none">
                    <mask id="mask-4" fill="white">
                        <use xlink:href="#path-3"></use>
                    </mask>
                    <g id="Clip-40"></g>
                    <path d="M74.1509839,44.2202079 C74.5639199,44.2202079 74.7105048,44.3112925 74.7105048,44.7810392 L74.7105048,47.326633 C74.7105048,47.7908706 74.5639199,47.9076645 74.1509839,47.9076645 L73.8633249,47.9076645 L73.8633249,44.2202079 L74.1509839,44.2202079 L74.1509839,44.2202079 Z M103.777667,46.6831645 C104.190603,46.6831645 104.317349,46.7856347 104.317349,47.2384867 L104.317349,48.1952421 C104.317349,48.6447886 104.190603,48.750197 103.777667,48.750197 L103.364731,48.750197 L103.364731,46.6831645 L103.777667,46.6831645 L103.777667,46.6831645 Z M71.2101014,44.7979339 C71.2101014,44.3366346 71.3625643,44.2202079 71.76852,44.2202079 L72.0646289,44.2202079 L72.0646289,47.9076645 L71.76852,47.9076645 C71.3625643,47.9076645 71.2101014,47.799318 71.2101014,47.3350804 L71.2101014,44.7979339 L71.2101014,44.7979339 Z M36.4808679,52.4178207 L109.441208,52.4178207 L109.441208,40.2565593 L36.4808679,40.2565593 L36.4808679,52.4178207 Z M44.4030656,42.2299362 L42.5518342,42.2299362 L42.5518342,45.2849426 L41.6003181,45.2849426 L41.6003181,42.2299362 L39.7505563,42.2299362 L39.7505563,50.1484188 L41.6003181,50.1484188 L41.6003181,46.6831645 L42.5518342,46.6831645 L42.5518342,50.1484188 L44.4030656,50.1484188 L44.4030656,42.2299362 Z M59.739006,42.2240598 L55.3003123,42.2240598 L55.3003123,50.1542953 L59.739006,50.1542953 L59.739006,48.650665 L57.2084877,48.650665 L57.2084877,46.7856347 L59.472655,46.7856347 L59.472655,45.2849426 L57.2084877,45.2849426 L57.2084877,43.7247518 L59.739006,43.7247518 L59.739006,42.2240598 Z M76.5033226,44.8522909 C76.5033226,43.2348049 75.7160258,42.8249242 73.8633249,42.8249242 L73.8633249,42.2299362 L72.0646289,42.2299362 L72.0646289,42.8249242 C70.2078868,42.8249242 69.4143444,43.2348049 69.4143444,44.8522909 L69.4143444,47.326633 C69.4143444,48.9327334 70.2416858,49.3653852 72.0646289,49.3653852 L72.0646289,50.1484188 L73.8633249,50.1484188 L73.8633249,49.3653852 C75.6862679,49.3653852 76.5033226,48.9327334 76.5033226,47.326633 L76.5033226,44.8522909 Z M90.7301407,42.2240598 L86.0721207,42.2240598 L86.0721207,43.7247518 L87.5743404,43.7247518 L87.5743404,50.1542953 L89.3329919,50.1542953 L89.3329919,43.7247518 L90.7301407,43.7247518 L90.7301407,42.2240598 Z M106.164539,47.2924763 C106.164539,45.7091471 105.492232,45.2849426 103.676637,45.2849426 L103.364731,45.2849426 L103.364731,42.2299362 L101.514601,42.2299362 L101.514601,50.1484188 L103.364731,50.1484188 C105.375405,50.1484188 106.164539,49.8410084 106.164539,48.1070957 L106.164539,47.2924763 Z M31.6005826,34.1803359 L31.6005826,46.6574551 C28.2710112,50.1968993 23.5329021,52.4178207 18.2709082,52.4178207 C8.18410337,52.4178207 -3.67380712e-05,44.2712593 -3.67380712e-05,34.2258782 C-3.67380712e-05,24.1860062 8.18410337,16.0398121 18.2709082,16.0398121 L18.2709082,29.715722 C15.6463404,29.715722 13.0203031,30.7121433 11.0180782,32.7053532 C10.5397485,33.1780381 10.1209345,33.687818 9.75796234,34.2258782 C7.07057244,38.1979742 7.48791693,43.6366054 11.0180782,47.149973 C13.0203031,49.1376737 15.6463404,50.1399715 18.2709082,50.1399715 C20.8826177,50.1399715 23.4976336,49.1519975 25.4983889,47.1727442 C25.5083082,47.1613586 25.5185949,47.1558494 25.5296163,47.1474021 L25.5296163,47.1415256 L25.5553329,47.1216927 C27.5619664,45.1255446 27.5619664,41.8824926 25.5553329,39.8922209 C23.5486995,37.8931346 20.3003192,37.8931346 18.2951553,39.8922209 C18.282297,39.8977301 18.2767863,39.9036065 18.2709082,39.9120539 L18.2709082,34.1803359 L31.6005826,34.1803359 Z M29.3279655,9.57611191 C30.4301076,14.4197552 30.4099017,17.3980008 29.931572,20.7949417 C29.0641861,26.9111982 26.2856858,31.5862615 25.082514,33.155267 C24.2562747,32.090165 22.9921177,29.9177241 22.148979,27.8907248 C22.148979,27.8907248 20.5538119,24.0324845 20.1324263,20.2737762 C19.7106732,16.512497 19.8917919,12.6913517 21.1206804,8.38870679 C22.2470696,4.52238645 24.457232,1.04831748 25.0626754,0.145918977 C25.4425471,0.786449296 28.2210474,4.73026499 29.3279655,9.57611191 L29.3279655,9.57611191 Z M25.0626754,31.9509672 C25.6266048,30.9056981 26.5950204,28.6138923 26.5094206,25.701022 C26.3914914,22.7282855 25.3859704,20.5499682 25.082514,20.0288028 C24.7364413,20.5499682 23.5714771,23.0470815 23.5913157,25.9658284 C23.6743437,28.9752925 24.5200541,30.9288365 25.0626754,31.9509672 L25.0626754,31.9509672 Z M29.0087116,17.7994341 C29.042878,15.9512984 28.8646984,12.8107166 27.962044,9.53350783 C27.0564505,6.25629909 25.3003707,3.13848838 25.0413673,2.73374961 C24.7834661,3.13848838 23.3932975,5.66975843 22.1658785,9.63303977 C21.8425835,10.8204449 21.260285,13.3976245 21.1592553,15.9086943 C21.0409588,18.9552534 21.4538947,21.9764704 21.6206855,22.8307556 C21.6206855,21.8229488 21.6405241,18.4627355 22.2643365,15.6894302 C22.8892511,12.9102485 24.076993,9.71273879 25.0413673,8.08717274 C26.088035,9.79831423 27.3995841,13.49128 27.8580752,15.7066922 C28.323914,17.9217372 28.5656505,20.7549085 28.4660903,22.7624422 C28.7452997,21.5978082 28.9660955,19.6472024 29.0087116,17.7994341 L29.0087116,17.7994341 Z M104.882748,15.9457893 L109.441208,15.9457893 L109.441208,34.1832741 L105.932355,34.1832741 L105.932355,22.7451802 L105.811119,22.7451802 L104.005443,34.1832741 L101.202695,34.1832741 L99.4014276,22.7451802 L99.2816615,22.7451802 L99.2816615,34.1832741 L95.7713388,34.1832741 L95.7713388,15.9457893 L100.322818,15.9457893 L102.595436,28.7619048 L104.882748,15.9457893 Z M79.8398743,25.9742757 C80.2215828,25.9742757 80.4938119,25.6382177 80.4938119,25.0630626 L80.4938119,19.1205278 C80.4938119,18.548311 80.2215828,18.209682 79.8398743,18.209682 L78.9173813,18.209682 L78.9173813,25.9742757 L79.8398743,25.9742757 Z M75.4155084,15.9457893 L80.9196062,15.9457893 C83.3748115,15.9457893 83.7635003,17.9276136 83.7635003,19.2031651 L83.7635003,24.7214954 C83.7635003,26.002556 83.3748115,27.9843803 80.9196062,27.9843803 L78.9173813,27.9843803 L78.9173813,34.1832741 L75.4155084,34.1832741 L75.4155084,15.9457893 Z M64.7702849,15.9457893 L72.8791119,15.9457893 L72.8791119,34.1832741 L69.6094236,34.1832741 L69.6094236,18.209682 L68.0374015,18.209682 L68.0374015,34.1832741 L64.7702849,34.1832741 L64.7702849,15.9457893 Z M57.862058,27.796702 L57.862058,31.2277996 C57.862058,31.7004845 58.2070284,31.831235 58.4105574,31.831235 C58.7323829,31.831235 58.9572199,31.5436575 58.9572199,31.2277996 L58.9572199,26.987959 C58.9572199,26.4183131 58.8602314,25.7921065 57.5560298,25.7921065 L56.1320622,25.7921065 L56.1320622,23.7875111 L57.6059936,23.7875111 C58.6067387,23.7875111 58.9572199,23.5454758 58.9572199,22.4348315 L58.9572199,18.8072409 C58.9572199,18.4943213 58.7323829,18.209682 58.4105574,18.209682 C58.2070284,18.209682 57.862058,18.3404324 57.862058,18.8072409 L57.862058,21.7799774 L54.3517353,21.7799774 L54.3517353,19.2031651 C54.3517353,17.9276136 54.5071373,15.9457893 56.9564645,15.9457893 L59.8628133,15.9457893 C62.3150796,15.9457893 62.4664404,17.9276136 62.4664404,19.2031651 L62.4664404,22.1244828 C62.4664404,24.100798 61.1361549,24.6443673 60.0836091,24.5933159 L60.0836091,24.778056 C62.4363152,24.7214954 62.4664404,26.6004822 62.4664404,27.2527654 L62.4664404,30.9229601 C62.4664404,32.2014498 62.3150796,34.1832741 59.8628133,34.1832741 L56.9564645,34.1832741 C54.5071373,34.1832741 54.3517353,32.2014498 54.3517353,30.9229601 L54.3517353,27.796702 L57.862058,27.796702 Z M48.9600559,27.3295262 L48.3590211,18.209682 L48.1654115,18.209682 L47.5588659,27.3295262 L48.9600559,27.3295262 Z M45.5081468,15.9457893 L51.0151836,15.9457893 L52.8436374,34.1832741 L49.4145059,34.1832741 L49.0897413,29.3341217 L47.4379976,29.3341217 L47.1062529,34.1832741 L43.6841015,34.1832741 L45.5081468,15.9457893 Z M36.4808679,15.9457893 L43.1671969,15.9457893 L43.1671969,18.209682 L39.9842104,18.209682 L39.9842104,34.1832741 L36.4808679,34.1832741 L36.4808679,15.9457893 Z M91.0949497,15.9457893 C93.5497877,15.9457893 93.7037202,17.9276136 93.7037202,19.2031651 L93.7037202,30.9229601 C93.7037202,32.2014498 93.5497877,34.1832741 91.0949497,34.1832741 L88.1952138,34.1832741 C85.7444171,34.1832741 85.5963626,32.2014498 85.5963626,30.9229601 L85.5963626,19.2031651 C85.5963626,17.9276136 85.7444171,15.9457893 88.1952138,15.9457893 L91.0949497,15.9457893 L91.0949497,15.9457893 Z M89.6493066,31.928196 C90.0721618,31.928196 90.4237452,31.6035235 90.4237452,31.2020903 L90.422643,31.1793191 L90.422643,18.9552534 L90.422643,18.9012637 L90.416765,18.8443359 C90.3800269,18.4884449 90.0468126,18.2038056 89.6434286,18.2038056 C89.2418814,18.2038056 88.9200559,18.4884449 88.8730312,18.8443359 L88.8730312,18.9012637 L88.8730312,18.9552534 L88.8730312,31.1793191 L88.8675205,31.2020903 C88.8675205,31.6035235 89.2176343,31.928196 89.6493066,31.928196 L89.6493066,31.928196 Z" id="Fill-39" fill="#1A7FC3" mask="url(#mask-4)"></path>
                </g>
                <polygon id="Fill-42" fill="#1A7FC3" points="105.039307 16.2739726 109.479452 16.2739726 109.479452 34.7671233 106.061671 34.7671233 106.061671 23.1686822 105.943582 23.1686822 104.184772 34.7671233 101.45477 34.7671233 99.7002537 23.1686822 99.5835961 23.1686822 99.5835961 34.7671233 96.1643836 34.7671233 96.1643836 16.2739726 100.59773 16.2739726 102.811361 29.2697534"></polygon>
                <g id="Group-46" stroke-width="1" fill="none" transform="translate(122.794521, 14.794521)">
                    <mask id="mask-6" fill="white">
                        <use xlink:href="#path-5"></use>
                    </mask>
                    <g id="Clip-45"></g>
                    <polygon id="Fill-44" fill="#1A7FC3" mask="url(#mask-6)" points="0.0390205479 0.0545178082 3.9455137 19.6298877 0.0390205479 39.2056274 1.84543151 39.2056274 5.75155479 19.6298877 1.84543151 0.0545178082"></polygon>
                </g>
            </g>
        </g>
    </g>
</svg>