<svg width="20" height="20" viewBox="0 0 20 20" fill="none" xmlns="http://www.w3.org/2000/svg">
<g clip-path="url(#clip0)">
<mask id="mask0" mask-type="alpha" maskUnits="userSpaceOnUse" x="0" y="0" width="19" height="21">
<path d="M18.711 18.217L14.027 13.267C15.2346 11.8065 15.8939 9.97004 15.891 8.075C15.891 3.623 12.327 0 7.946 0C3.565 0 0 3.623 0 8.075C0 12.527 3.565 16.15 7.946 16.15C9.57913 16.1532 11.1718 15.642 12.498 14.689L17.218 19.677C17.3112 19.7769 17.4235 19.857 17.5482 19.9127C17.673 19.9685 17.8076 19.9986 17.9442 20.0014C18.0807 20.0042 18.2165 19.9796 18.3434 19.929C18.4703 19.8785 18.5858 19.803 18.683 19.707C18.8807 19.5111 18.9942 19.2459 18.9994 18.9677C19.0047 18.6895 18.9012 18.4201 18.711 18.217ZM8 2C11.308 2 14 4.692 14 8C14 11.308 11.308 14 8 14C4.692 14 2 11.308 2 8C2 4.692 4.692 2 8 2Z" fill="#999999"/>
</mask>
<g mask="url(#mask0)">
<path d="M18.711 18.217L14.027 13.267C15.2346 11.8065 15.8939 9.97004 15.891 8.075C15.891 3.623 12.327 0 7.946 0C3.565 0 0 3.623 0 8.075C0 12.527 3.565 16.15 7.946 16.15C9.57913 16.1532 11.1718 15.642 12.498 14.689L17.218 19.677C17.3112 19.7769 17.4235 19.857 17.5482 19.9127C17.673 19.9685 17.8076 19.9986 17.9442 20.0014C18.0807 20.0042 18.2165 19.9796 18.3434 19.929C18.4703 19.8785 18.5858 19.803 18.683 19.707C18.8807 19.5111 18.9942 19.2459 18.9994 18.9677C19.0047 18.6895 18.9012 18.4201 18.711 18.217ZM8 2C11.308 2 14 4.692 14 8C14 11.308 11.308 14 8 14C4.692 14 2 11.308 2 8C2 4.692 4.692 2 8 2Z" fill="#999999"/>
<path fill-rule="evenodd" clip-rule="evenodd" d="M0 0H20V20H0V0Z" fill="#999999"/>
</g>
</g>
<defs>
<clipPath id="clip0">
<rect width="20" height="20" fill="white"/>
</clipPath>
</defs>
</svg>
