<svg width="19" height="24" viewBox="0 0 19 24" fill="none" xmlns="http://www.w3.org/2000/svg">
<path d="M9.43601 18.8485L9.42905 19.1081L9.68878 19.1052C15.5185 19.0386 18.7329 12.4375 15.123 8.01856C14.9038 7.73485 14.8555 7.4579 14.9006 7.21937C14.9471 6.97408 15.0967 6.74829 15.3079 6.5877C15.5191 6.42715 15.7791 6.34148 16.0326 6.36051C16.2803 6.37909 16.54 6.49861 16.7608 6.78322L16.7608 6.78324L16.7637 6.78682C21.3464 12.4751 17.2769 21.1146 9.68592 21.1146H9.43592V21.3646V23.6854L4.49721 20.0788L9.49799 16.5353L9.43601 18.8485Z" fill="#0081CC" stroke="white" stroke-width="0.5"/>
<path d="M9.29297 2.89068H9.54297V2.64068V0.367701L14.4162 3.92642L9.47746 7.42594V5.15006V4.89719L9.2246 4.90008C3.38788 4.96673 0.251002 11.508 3.78993 15.986L3.78991 15.9861L3.79225 15.9889C4.00926 16.2553 4.05787 16.5226 4.01283 16.7583C3.96645 17.001 3.81639 17.2297 3.60348 17.3949C3.39074 17.5601 3.12982 17.6505 2.87688 17.6354C2.63053 17.6208 2.37245 17.5054 2.15257 17.222L2.15258 17.222L2.15079 17.2198C-2.36969 11.5297 1.63838 2.89068 9.29297 2.89068Z" fill="#0081CC" stroke="white" stroke-width="0.5"/>
</svg>
